<?xml version="1.0" encoding="UTF-8"?>
<!-- Generator: visioncortex VTracer 0.6.12 -->
<svg version="1.1" xmlns="http://www.w3.org/2000/svg" width="937" height="380">
<path d="M0 0 C0.71 0.12 1.42 0.24 2.14 0.36 C42.44 7.3 79.65 25.55 109 54 C109.38 54.36 109.38 54.36 111.27 56.15 C142.26 86.1 160.25 127.35 161.25 170.38 C160.91 184.55 158.78 198.36 155 212 C154.68 213.21 154.35 214.41 154.02 215.66 C147.86 236.16 135.97 255.78 121 271 C120.3 271.71 119.6 272.43 118.88 273.16 C101.79 289.48 80.43 299.56 59.02 308.86 C51.72 312.04 46.99 315.01 43 322 C42.4 323.03 41.8 324.06 41.19 325.12 C39.07 330.25 38.92 335.31 38.81 340.78 C38.57 350.52 37.8 358.32 30.5 365.44 C19.5 370.35 -0.55 374.82 -12.19 370.94 C-19.41 365.96 -20.62 356.83 -22.62 348.81 C-23.22 346.48 -23.81 344.16 -24.41 341.83 C-24.67 340.81 -24.93 339.78 -25.19 338.73 C-25.91 336.29 -26.78 334.22 -28 332 C-28.99 332 -29.98 332 -31 332 C-31.44 334.42 -31.88 336.83 -32.31 339.25 C-32.45 340 -32.59 340.75 -32.73 341.53 C-33.49 345.8 -34.16 350.06 -34.69 354.37 C-34.81 355.26 -34.92 356.14 -35.04 357.06 C-35.26 358.78 -35.46 360.5 -35.65 362.22 C-36.4 367.97 -37.6 371.11 -42 375 C-44.71 375.94 -46.78 376.49 -49.56 376.88 C-50.26 376.99 -50.97 377.1 -51.69 377.22 C-68.15 379.67 -68.15 379.67 -75 376 C-82.94 367.71 -84.26 353.22 -86.89 342.4 C-88.09 337.53 -89.3 332.73 -91 328 C-91.66 328 -92.32 328 -93 328 C-93.48 331.75 -93.96 335.5 -94.44 339.25 C-94.5 339.77 -94.5 339.77 -94.85 342.41 C-95.65 348.73 -96.28 355.03 -96.68 361.38 C-97.39 367.13 -99.47 370.77 -103.94 374.38 C-112.77 378.64 -126.02 379.72 -135.5 377.38 C-141.52 375.08 -145.57 371.4 -149 366 C-151.72 358.94 -153.43 351.45 -155.33 344.13 C-155.53 343.35 -155.74 342.58 -155.94 341.77 C-157.64 335.26 -157.64 335.26 -158.42 332.15 C-162.35 316.57 -167.92 303.74 -178 291 C-178.69 290.12 -179.38 289.24 -180.09 288.33 C-184.19 283.2 -188.51 278.35 -193 273.56 C-218.32 246.39 -229.97 210.97 -229 174 C-228.13 154.56 -223.87 136.78 -216 119 C-215.71 118.33 -215.43 117.67 -215.13 116.98 C-203.36 89.77 -184.54 64.13 -161 46 C-159.93 45.13 -158.87 44.27 -157.8 43.39 C-114.38 8.09 -55.66 -9.72 0 0 Z M-30.88 142.3 C-32.79 143.26 -34.7 144.21 -36.61 145.17 C-39.46 146.61 -42.33 148.03 -45.19 149.46 C-54.64 154.18 -64.01 159.01 -73.28 164.09 C-74.13 164.55 -74.98 165.01 -75.86 165.49 C-76.64 165.92 -77.42 166.35 -78.22 166.8 C-78.9 167.18 -79.59 167.55 -80.29 167.94 C-82.68 169.42 -83.85 170.43 -84.56 173.19 C-83.46 178.7 -78.75 181.74 -74.37 184.9 C-65.61 190.68 -56.55 195.26 -45.75 193.67 C-30.92 189.56 -21.06 176.58 -13.66 163.95 C-10.57 158.42 -8.09 152.75 -5.88 146.81 C-5.58 146.02 -5.28 145.23 -4.98 144.42 C-3.47 140.14 -2.66 136.6 -3 132 C-10.77 129.41 -23.82 138.79 -30.88 142.3 Z M-183 160 C-183.92 162.45 -184.23 164.28 -183.42 166.8 C-179.07 176.02 -172.99 183.12 -164 188 C-158.23 189.92 -152.12 190.02 -146.62 187.38 C-139.38 180.82 -139.38 180.82 -138.44 176.31 C-139.19 173.21 -140.33 172.7 -143 171 C-145.7 169.97 -145.7 169.97 -148.76 169.06 C-149.32 168.89 -149.32 168.89 -152.15 168.04 C-153.32 167.7 -154.49 167.35 -155.69 167 C-157.98 166.31 -160.28 165.63 -162.57 164.94 C-163.67 164.61 -164.77 164.28 -165.9 163.95 C-169.36 162.89 -172.79 161.74 -176.2 160.53 C-178.51 159.85 -180.61 159.77 -183 160 Z M-116.91 253.21 C-121.59 262.24 -121.59 262.24 -121 268 C-119.06 270.81 -117.26 271.37 -114 272 C-109.69 272.25 -105.38 272.23 -101.06 272.25 C-99.88 272.27 -98.7 272.29 -97.49 272.31 C-96.92 272.32 -96.92 272.32 -94.04 272.33 C-93 272.34 -91.96 272.35 -90.89 272.36 C-87.55 271.94 -85.69 271 -83 269 C-82 266.69 -82 266.69 -82 264 C-83.99 259.26 -86.76 255.65 -90.25 251.94 C-90.49 251.68 -90.49 251.68 -91.73 250.35 C-99.7 241.97 -99.7 241.97 -105.56 240.25 C-111.41 242.05 -114.21 248.13 -116.91 253.21 Z " fill="#5ABA82" transform="translate(229,2)"/>
<path d="M0 0 C0.44 -0.01 0.44 -0.01 2.64 -0.04 C15.68 0.05 24.92 5.07 34.38 13.75 C50.22 30.31 55.55 53.55 55.62 75.84 C55.62 77.97 55.66 80.11 55.69 82.24 C55.83 100.56 50.6 116.54 38.38 130.38 C37.76 131.19 37.15 132 36.51 132.84 C34.05 135.75 31.33 138.07 28.31 140.38 C27.74 140.81 27.17 141.25 26.58 141.7 C7.78 155.65 -16.71 156.53 -39.19 153.62 C-50.16 151.63 -60.75 148.4 -71.33 144.92 C-71.8 144.77 -71.8 144.77 -74.17 143.99 C-78.06 142.72 -81.94 141.44 -85.82 140.14 C-88.69 139.18 -91.57 138.23 -94.45 137.3 C-95.31 137 -96.17 136.71 -97.05 136.41 C-105.17 133.8 -113.65 132.71 -121.47 136.71 C-122.08 137.05 -122.69 137.4 -123.31 137.75 C-123.98 138.1 -124.65 138.46 -125.33 138.82 C-131.06 141.91 -136.59 145.33 -142.05 148.87 C-154.3 156.81 -165.02 159.76 -179.62 158.38 C-183.08 157.55 -185.68 156.34 -188.62 154.38 C-189.27 153.99 -189.92 153.6 -190.58 153.2 C-200.09 146.86 -207.29 136.8 -211.62 126.38 C-211.96 125.59 -212.3 124.81 -212.65 124.01 C-220.14 103.81 -218.95 79.76 -210.27 60.35 C-204.09 48.02 -194.75 36.88 -181.52 32.08 C-173.51 30.14 -165.36 29.96 -157.94 33.81 C-152.94 36.95 -148.3 40.59 -143.62 44.19 C-133.78 51.36 -125.26 54.86 -113.09 52.98 C-99.23 49.72 -87.01 41.66 -75.46 33.65 C-27.39 0.32 -27.39 0.32 0 0 Z M-35.5 65.68 C-37.41 66.63 -39.32 67.59 -41.23 68.55 C-44.09 69.98 -46.95 71.41 -49.81 72.83 C-59.26 77.55 -68.64 82.39 -77.91 87.46 C-78.76 87.92 -79.61 88.39 -80.48 88.87 C-81.26 89.3 -82.04 89.73 -82.85 90.17 C-83.53 90.55 -84.21 90.93 -84.92 91.32 C-87.3 92.8 -88.48 93.81 -89.19 96.56 C-88.08 102.08 -83.37 105.12 -78.99 108.27 C-70.24 114.05 -61.18 118.64 -50.38 117.04 C-35.55 112.94 -25.69 99.96 -18.29 87.32 C-15.2 81.79 -12.71 76.12 -10.5 70.19 C-10.2 69.4 -9.91 68.61 -9.61 67.8 C-8.1 63.51 -7.29 59.98 -7.62 55.38 C-15.39 52.79 -28.45 62.16 -35.5 65.68 Z M-187.62 83.38 C-188.54 85.82 -188.86 87.65 -188.05 90.17 C-183.7 99.39 -177.62 106.5 -168.62 111.38 C-162.86 113.3 -156.75 113.4 -151.25 110.75 C-144.01 104.2 -144.01 104.2 -143.06 99.69 C-143.82 96.59 -144.96 96.07 -147.62 94.38 C-150.32 93.35 -150.32 93.35 -153.39 92.44 C-153.95 92.27 -153.95 92.27 -156.78 91.41 C-157.95 91.07 -159.11 90.73 -160.31 90.38 C-162.61 89.69 -164.9 89 -167.2 88.31 C-168.3 87.99 -169.39 87.66 -170.52 87.32 C-173.99 86.26 -177.41 85.12 -180.83 83.91 C-183.13 83.22 -185.23 83.14 -187.62 83.38 Z " fill="#EBDEB9" transform="translate(233.625,78.625)"/>
<path d="M0 0 C2.25 -0.25 2.25 -0.25 6.12 0.44 C9.08 3.02 11.01 6.17 13.12 9.44 C14.23 11 15.34 12.56 16.46 14.12 C17.74 15.89 19 17.66 20.26 19.44 C27.91 30.16 35.81 40.71 43.69 51.25 C43.93 51.57 43.93 51.57 45.13 53.19 C45.58 53.8 46.04 54.4 46.5 55.02 C46.89 55.54 47.28 56.06 47.68 56.59 C49.77 59.26 51.95 61.85 54.12 64.44 C54.12 63.71 54.12 62.97 54.12 62.21 C54.1 55.3 54.08 48.38 54.07 41.47 C54.07 37.91 54.06 34.36 54.05 30.8 C54.04 26.71 54.03 22.63 54.03 18.54 C54.02 17.9 54.02 17.9 54.01 14.66 C54.01 13.48 54.01 12.3 54.01 11.08 C54.01 10.04 54.01 9 54 7.92 C54.12 5.44 54.12 5.44 55.12 3.44 C59.09 2.53 62.9 2.32 66.96 2.34 C68.02 2.35 69.09 2.35 70.18 2.35 C70.73 2.36 70.73 2.36 73.5 2.38 C74.62 2.38 75.74 2.39 76.89 2.39 C79.63 2.4 82.38 2.42 85.12 2.44 C87.45 6.1 87.3 9.08 87.14 13.34 C87.11 14.01 87.09 14.68 87.07 15.37 C86.99 17.52 86.9 19.67 86.81 21.82 C86.76 23.22 86.71 24.63 86.67 26.03 C86.29 36.4 86.29 36.4 85.88 41.51 C85.21 49.78 85.02 57.98 85.11 66.27 C85.13 68.45 85.15 70.64 85.16 72.83 C85.19 79.03 85.23 85.23 85.3 91.43 C85.33 95.26 85.36 99.08 85.37 102.9 C85.38 104.35 85.39 105.8 85.41 107.25 C85.44 109.26 85.44 111.27 85.45 113.29 C85.45 113.86 85.45 113.86 85.48 116.75 C85.36 117.64 85.25 118.53 85.12 119.44 C80.58 122.47 76.1 121.77 70.75 121.75 C70.23 121.76 70.23 121.76 67.59 121.8 C57.72 121.81 57.72 121.81 54.12 118.44 C52.13 115.88 50.41 113.19 48.69 110.44 C42.71 101.19 36.29 92.34 29.69 83.53 C28.31 81.69 26.95 79.85 25.59 78 C20.36 70.92 14.82 64.15 9.12 57.44 C8.95 76.39 8.95 76.39 9.62 84.5 C10.19 91.92 10.27 99.32 10.31 106.75 C10.33 107.97 10.34 109.18 10.35 110.43 C10.35 111 10.35 111 10.36 113.87 C10.36 114.89 10.36 115.92 10.37 116.97 C10.12 119.44 10.12 119.44 8.12 121.44 C5.38 121.7 5.38 121.7 1.91 121.71 C1.29 121.71 1.29 121.71 -1.86 121.71 C-2.51 121.71 -2.51 121.71 -5.81 121.69 C-6.46 121.7 -6.46 121.7 -9.76 121.71 C-10.38 121.71 -10.38 121.71 -13.53 121.71 C-14.67 121.7 -15.82 121.7 -17 121.7 C-19.88 121.44 -19.88 121.44 -22.88 119.44 C-23.23 117.16 -23.23 117.16 -23.2 114.29 C-23.2 113.22 -23.19 112.14 -23.19 111.04 C-23.17 109.87 -23.15 108.7 -23.12 107.5 C-23.11 106.3 -23.1 105.1 -23.09 103.87 C-22.96 93.04 -22.54 82.22 -22.1 71.41 C-21.67 60.53 -21.89 49.75 -22.38 38.88 C-22.74 30.61 -23.03 22.34 -23.12 14.07 C-23.15 13.13 -23.17 12.19 -23.19 11.22 C-23.19 10.36 -23.2 9.49 -23.2 8.61 C-23.21 7.85 -23.22 7.09 -23.23 6.31 C-23.11 5.69 -23 5.08 -22.88 4.44 C-17.7 0.99 -11 1.21 -4.89 0.65 C-3.25 0.48 -1.63 0.25 0 0 Z " fill="#5BB781" transform="translate(849.875,192.55859375)"/>
<path d="M0 0 C7.51 6.27 13.62 13.21 18 22 C18.38 22.69 18.75 23.38 19.14 24.09 C26.68 39.12 27.13 58.16 22 74 C18.51 82.98 14.04 91.33 7 98 C6.35 98.67 5.69 99.35 5.02 100.04 C-5.37 110.15 -18.13 113.88 -32.31 114.31 C-48.37 113.97 -63.12 108.72 -74.75 97.45 C-89.14 81.79 -92.9 66.08 -92.14 45.42 C-91.18 29.22 -81.82 14.34 -70.38 3.31 C-50.65 -13.08 -21.07 -15.26 0 0 Z M-50.77 27.71 C-57.34 34.44 -60.28 42.94 -60.38 52.25 C-60.19 62.62 -57.4 69.58 -50.19 77.08 C-44.08 82.43 -37.88 83.7 -29.86 83.38 C-22.66 82.43 -17.64 78.54 -12.77 73.31 C-6.19 64.71 -5.99 54.36 -7 44 C-8.75 35.56 -12.78 28.6 -19.95 23.66 C-31.05 17.55 -41.37 19.67 -50.77 27.71 Z " fill="#5AB680" transform="translate(620,202)"/>
<path d="M0 0 C2.38 2.23 3.3 3.41 4.56 6.5 C4.23 10.4 2.7 12.5 0.31 15.44 C-0.01 15.85 -0.01 15.85 -1.63 17.93 C-3.62 20.46 -5.62 22.97 -7.69 25.44 C-8.18 26.05 -8.67 26.67 -9.18 27.3 C-10.69 28.44 -10.69 28.44 -12.61 28.34 C-15.13 27.25 -16.9 25.83 -19 24.06 C-26.94 17.79 -33.66 16.37 -43.69 17.44 C-50.83 19.23 -55.46 24.68 -59.69 30.44 C-64.53 38.84 -64.94 49.2 -62.75 58.5 C-60.37 65.47 -55.49 71.03 -49.3 74.95 C-42.13 78.24 -34.26 78.83 -26.7 76.53 C-24.31 75.59 -21.99 74.58 -19.69 73.44 C-19.42 66.82 -20.06 60.73 -21.24 54.22 C-21.78 50.86 -21.91 47.83 -21.69 44.44 C-19.75 42.5 -16.09 43.25 -13.44 43.23 C-12.72 43.23 -11.99 43.22 -11.24 43.22 C-9.7 43.21 -8.16 43.2 -6.62 43.2 C-4.26 43.19 -1.9 43.16 0.46 43.12 C1.95 43.12 3.44 43.11 4.93 43.11 C5.64 43.1 6.35 43.08 7.08 43.07 C9.07 43.08 9.07 43.08 12.31 43.44 C14.67 46.97 14.43 47.82 13.94 51.9 C13.32 57.99 13.18 63.98 13.21 70.11 C13.22 71.16 13.22 72.21 13.22 73.29 C13.22 76.59 13.24 79.89 13.25 83.19 C13.26 85.45 13.26 87.7 13.26 89.96 C13.27 95.45 13.29 100.95 13.31 106.44 C9.55 106.51 6.57 106.51 2.94 105.44 C-5.45 103.12 -12.06 104.87 -20.26 107.46 C-35.06 111.66 -51.37 110.37 -65.23 103.74 C-80.62 94.82 -90.06 82.46 -94.96 65.45 C-99.66 46 -95.87 27.4 -85.69 10.44 C-77.57 -1.57 -65.36 -10.23 -51.25 -14 C-32.13 -17.15 -14.97 -11.99 0 0 Z " fill="#5AB680" transform="translate(750.6875,206.5625)"/>
<path d="M0 0 C1.24 2.49 1.13 4.16 1.13 6.94 C1.13 7.98 1.14 9.02 1.14 10.1 C1.13 11.24 1.13 12.38 1.12 13.56 C1.12 14.76 1.12 15.95 1.12 17.18 C1.07 27.28 0.78 37.37 0.43 47.46 C0.03 58.81 -0.07 70.13 0.12 81.49 C0.24 92.7 -0.69 102.2 -8.57 110.69 C-20.46 121.73 -37.45 122.67 -52.87 122.29 C-65.22 121.74 -79.64 119.39 -89 110.69 C-99.75 98.47 -98.31 81.73 -98.27 66.43 C-98.27 64.57 -98.27 62.71 -98.27 60.85 C-98.27 56.98 -98.27 53.11 -98.26 49.24 C-98.25 44.28 -98.26 39.31 -98.27 34.35 C-98.28 30.52 -98.27 26.69 -98.27 22.87 C-98.27 21.03 -98.27 19.2 -98.27 17.37 C-98.28 14.82 -98.27 12.28 -98.26 9.73 C-98.26 8.97 -98.27 8.22 -98.27 7.44 C-98.23 2.23 -98.23 2.23 -96 0 C-93.25 -0.26 -93.25 -0.26 -89.79 -0.27 C-88.54 -0.27 -87.3 -0.27 -86.02 -0.27 C-85.36 -0.27 -85.36 -0.27 -82.06 -0.25 C-80.76 -0.26 -79.46 -0.27 -78.12 -0.27 C-77.5 -0.27 -77.5 -0.27 -74.35 -0.27 C-73.2 -0.26 -72.06 -0.26 -70.88 -0.26 C-68 0 -68 0 -65 2 C-62.95 10.88 -63.8 20.95 -64.36 29.97 C-64.91 38.96 -65.14 47.94 -65.18 56.94 C-65.19 58.95 -65.21 60.96 -65.23 62.97 C-65.25 82.52 -65.25 82.52 -60.81 88.56 C-55.94 92.79 -51.62 93.2 -45.38 92.81 C-41.26 92.32 -38.2 91.8 -35 89 C-30.89 83.56 -30.87 77.7 -30.87 71.09 C-30.87 70.77 -30.87 70.77 -30.86 69.12 C-30.86 67.75 -30.87 66.39 -30.87 65.02 C-30.87 62.97 -30.87 60.92 -30.86 58.87 C-30.86 52.73 -30.97 46.64 -31.5 40.52 C-32.09 33.64 -32.15 26.78 -32.13 19.88 C-32.12 17.78 -32.13 15.67 -32.14 13.56 C-32.14 12.21 -32.13 10.87 -32.13 9.52 C-32.13 8.31 -32.13 7.11 -32.13 5.87 C-32 3 -32 3 -31 1 C-26.25 -0.64 -21.03 -0.41 -16.06 -0.62 C-15.07 -0.68 -14.08 -0.73 -13.06 -0.78 C-12.11 -0.83 -11.15 -0.87 -10.16 -0.91 C-9.29 -0.95 -8.42 -1 -7.52 -1.04 C-4.87 -1 -2.56 -0.72 0 0 Z " fill="#5AB780" transform="translate(632,52)"/>
<path d="M0 0 C2.71 0.28 2.71 0.28 5.03 1.93 C7.03 4.73 7.33 6.44 7.57 9.85 C7.65 10.91 7.73 11.97 7.82 13.07 C7.88 14.17 7.95 15.27 8.02 16.41 C8.06 16.96 8.06 16.96 8.28 19.77 C8.86 27.97 8.86 27.97 7.71 30.28 C7.41 30.28 7.41 30.28 5.94 30.27 C-0.11 30.22 -6.16 30.19 -12.21 30.17 C-14.47 30.16 -16.73 30.15 -18.99 30.13 C-22.23 30.11 -25.48 30.1 -28.72 30.09 C-29.73 30.08 -30.75 30.07 -31.79 30.06 C-32.26 30.06 -32.26 30.06 -34.64 30.05 C-35.47 30.05 -36.3 30.05 -37.15 30.04 C-39.29 30.28 -39.29 30.28 -42.29 32.28 C-42.69 34.56 -42.69 34.56 -42.67 37.22 C-42.68 38.09 -42.69 38.97 -42.69 39.87 C-42.21 42.76 -41.56 43.48 -39.29 45.28 C-36.3 45.52 -33.53 45.58 -30.54 45.5 C-29.68 45.5 -28.83 45.49 -27.94 45.48 C-25.21 45.45 -22.47 45.4 -19.73 45.34 C-16.99 45.3 -14.25 45.25 -11.51 45.22 C-9.8 45.2 -8.1 45.17 -6.39 45.13 C-4.36 45.11 -2.32 45.18 -0.29 45.28 C1.71 47.28 1.71 47.28 1.95 50.06 C1.94 51.22 1.94 52.38 1.94 53.57 C1.93 54.82 1.93 56.07 1.93 57.36 C1.92 58.68 1.91 59.99 1.89 61.34 C1.89 62 1.89 62 1.89 65.34 C1.85 75.14 1.85 75.14 0.71 76.28 C-2.23 76.43 -5.14 76.52 -8.07 76.56 C-8.95 76.58 -9.84 76.6 -10.74 76.62 C-13.57 76.68 -16.4 76.73 -19.23 76.78 C-22.95 76.85 -26.67 76.92 -30.38 77 C-30.82 77.01 -30.82 77.01 -33 77.04 C-39.07 77.17 -39.07 77.17 -41.29 78.28 C-42.62 82.24 -42.25 85.92 -42.07 90.04 C-42.01 91.79 -41.94 93.55 -41.88 95.31 C-41.78 98.09 -41.67 100.86 -41.55 103.63 C-41.44 106.31 -41.35 108.98 -41.26 111.66 C-41.22 112.49 -41.17 113.33 -41.13 114.19 C-41.06 116.52 -41.06 116.52 -41.29 120.28 C-44.97 122.73 -48.02 122.77 -52.29 122.97 C-53.05 123.01 -53.81 123.05 -54.6 123.09 C-69.15 123.71 -69.15 123.71 -74.57 121.25 C-77.26 118.18 -76.75 114.91 -76.61 111.03 C-76.59 110.19 -76.58 109.35 -76.56 108.49 C-76.4 101.09 -76.01 93.7 -75.66 86.31 C-74.85 68.32 -75.22 50.55 -76.57 32.59 C-77.09 25.61 -77.53 18.66 -77.61 11.66 C-77.62 10.93 -77.64 10.21 -77.66 9.47 C-77.66 4.77 -77.66 4.77 -76.07 2.6 C-73.76 0.89 -72.44 0.92 -69.59 0.96 C-69.11 0.96 -69.11 0.96 -66.69 0.97 C-65.65 0.99 -64.62 1 -63.55 1.02 C-63.01 1.03 -63.01 1.03 -60.27 1.04 C-56.8 1.07 -53.33 1.11 -49.86 1.16 C-45.34 1.2 -40.82 1.24 -36.3 1.27 C-35.75 1.28 -35.75 1.28 -32.95 1.3 C-24.39 1.34 -15.87 1.03 -7.32 0.5 C-6.63 0.47 -5.94 0.43 -5.22 0.39 C-3.48 0.29 -1.74 0.15 0 0 Z " fill="#59B680" transform="translate(516.294677734375,49.71826171875)"/>
<path d="M0 0 C1.08 6.67 0.9 12.95 0.56 19.69 C-0.1 34.89 -0.09 50.09 -0.06 65.31 C-0.06 66.53 -0.06 67.75 -0.06 69 C-0.04 76 -0.03 83 0 90 C9.44 90.1 18.73 90.08 28.12 89 C40.95 87.59 40.95 87.59 45 88 C47.13 90.14 47.94 91.47 48.3 94.49 C48.26 95.4 48.22 96.31 48.18 97.25 C48.14 98.25 48.1 99.25 48.05 100.28 C48 101.32 47.94 102.37 47.88 103.44 C47.84 104.47 47.8 105.51 47.77 106.58 C47.31 115.95 47.31 115.95 44 120 C41.6 120.58 41.6 120.58 38.69 120.52 C37.57 120.51 36.45 120.5 35.3 120.49 C34.68 120.47 34.68 120.47 31.56 120.38 C30.92 120.36 30.92 120.36 27.67 120.31 C24.77 120.26 21.86 120.19 18.96 120.11 C14.43 120 9.9 119.94 5.37 119.9 C1.37 119.85 -2.64 119.79 -6.64 119.73 C-8.63 119.7 -10.62 119.68 -12.6 119.66 C-15.41 119.62 -18.23 119.57 -21.04 119.51 C-21.89 119.51 -22.73 119.5 -23.6 119.49 C-26.85 119.41 -29.49 119.19 -32.55 118.07 C-35.05 114.51 -34.37 110.63 -34.17 106.42 C-34.14 105.45 -34.12 104.49 -34.09 103.49 C-33.99 100.39 -33.87 97.29 -33.75 94.19 C-33.61 90.16 -33.49 86.13 -33.36 82.11 C-33.33 81.11 -33.29 80.11 -33.26 79.08 C-33.03 72.06 -32.93 65.04 -32.92 58.02 C-32.92 57.14 -32.92 56.25 -32.92 55.34 C-32.93 50.04 -33.14 44.79 -33.5 39.5 C-34.06 30.98 -34.11 22.47 -34.12 13.94 C-34.13 13.25 -34.13 12.57 -34.13 11.87 C-34.14 9.92 -34.14 7.97 -34.13 6.03 C-34.13 4.89 -34.13 3.75 -34.13 2.58 C-34 0 -34 0 -33 -1 C-30.75 -1.05 -28.5 -1.04 -26.25 -1 C-20.04 -0.92 -13.99 -1.27 -7.8 -1.98 C-4.72 -2 -2.76 -1.33 0 0 Z " fill="#5AB680" transform="translate(773,53)"/>
<path d="M0 0 C0.66 0.02 1.31 0.04 1.99 0.06 C3.38 0.1 4.76 0.16 6.15 0.22 C8.27 0.3 10.4 0.36 12.52 0.41 C13.87 0.46 15.22 0.51 16.56 0.56 C17.79 0.61 19.02 0.65 20.28 0.7 C21.25 0.86 22.22 1.02 23.21 1.18 C25.63 4.8 25.48 7.38 25.4 11.55 C25.4 12.31 25.39 13.07 25.38 13.85 C25.31 19.43 25.03 24.98 24.71 30.55 C24.17 40.43 24.1 50.29 24.09 60.18 C24.09 60.93 24.08 61.67 24.08 62.44 C24.02 83.37 24.02 83.37 25.21 90.18 C33.09 94.12 47.34 90.81 55.8 89.89 C60.97 89.34 66.01 88.9 71.21 89.18 C73.82 91.79 73.47 93.64 73.49 97.2 C73.48 98 73.47 98.8 73.46 99.62 C73.46 100.43 73.45 101.23 73.45 102.07 C73.35 108.14 73.18 114.38 71.21 120.18 C67.67 121.95 63.49 121.32 59.59 121.3 C58.54 121.3 57.5 121.3 56.42 121.29 C53.17 121.27 49.92 121.24 46.66 121.21 C44.92 121.19 43.17 121.17 41.42 121.15 C35.03 121.09 28.64 121.01 22.25 120.92 C20.06 120.88 17.87 120.86 15.68 120.83 C12.56 120.8 9.44 120.75 6.32 120.69 C5.38 120.69 4.43 120.68 3.46 120.67 C3.02 120.66 3.02 120.66 0.79 120.61 C0.03 120.6 -0.74 120.59 -1.53 120.58 C-4.63 120.03 -6.37 119.23 -8.79 117.18 C-9.38 114.04 -9.38 114.04 -9.34 110.1 C-9.34 109.39 -9.34 108.67 -9.33 107.93 C-9.33 105.55 -9.28 103.16 -9.24 100.78 C-9.23 99.11 -9.22 97.44 -9.21 95.77 C-9.18 91.34 -9.13 86.92 -9.07 82.5 C-8.98 75.51 -8.93 68.51 -8.88 61.51 C-8.87 59.82 -8.86 58.12 -8.84 56.43 C-8.74 44.67 -8.89 32.99 -9.67 21.25 C-10.63 4.47 -10.63 4.47 -8.69 1.5 C-5.81 -0.5 -3.47 -0.11 0 0 Z " fill="#59B67F" transform="translate(448.78515625,193.8203125)"/>
<path d="M0 0 C0.64 0 0.64 0 3.91 0 C4.58 0.01 5.25 0.02 5.94 0.03 C7.99 0.05 10.04 0.05 12.1 0.04 C22.17 0.1 22.17 0.1 24.43 2.36 C24.68 4.62 24.68 4.62 24.66 7.48 C24.66 8.55 24.66 9.61 24.66 10.71 C24.65 11.88 24.63 13.04 24.62 14.24 C24.62 15.45 24.61 16.66 24.6 17.91 C24.54 26.26 24.24 34.59 23.87 42.93 C23.16 59.09 23.78 75.21 24.43 91.36 C33.13 91.48 41.66 91.24 50.31 90.36 C68.21 88.6 68.21 88.6 71.41 90.6 C74.59 96.08 72.29 104.72 71.62 110.8 C71.55 111.5 71.48 112.2 71.41 112.92 C70.81 117.84 70.81 117.84 69.23 120.06 C66.75 121.86 65.06 121.72 62.01 121.69 C61.46 121.69 61.46 121.69 58.69 121.68 C57.51 121.66 56.33 121.64 55.12 121.61 C53.91 121.6 52.69 121.59 51.44 121.58 C43.13 121.48 34.84 121.18 26.54 120.72 C21.72 120.46 16.93 120.35 12.1 120.4 C11.57 120.41 11.57 120.41 8.92 120.44 C6.89 120.47 4.87 120.52 2.84 120.58 C1.93 120.59 1.02 120.61 0.08 120.62 C-0.72 120.64 -1.52 120.67 -2.35 120.69 C-5.31 120.25 -6.46 119.5 -8.57 117.36 C-9.04 114.26 -9.04 114.26 -9 110.38 C-9 109.67 -9 108.96 -9 108.23 C-8.99 105.88 -8.96 103.53 -8.92 101.18 C-8.91 99.53 -8.9 97.88 -8.9 96.24 C-8.88 91.87 -8.83 87.51 -8.78 83.15 C-8.71 76.25 -8.67 69.35 -8.62 62.44 C-8.61 60.77 -8.6 59.1 -8.59 57.43 C-8.51 45.75 -8.69 34.14 -9.45 22.48 C-9.67 18.57 -9.74 14.65 -9.82 10.74 C-9.83 10.39 -9.83 10.39 -9.88 8.61 C-9.91 3.89 -9.91 3.89 -8.46 1.68 C-5.65 -0.27 -3.39 -0.01 0 0 Z " fill="#5AB580" transform="translate(657.56640625,51.63671875)"/>
<path d="M0 0 C0.1 1.65 0.13 3.31 0.13 4.97 C0.13 6.01 0.14 7.04 0.14 8.11 C0.13 9.23 0.13 10.35 0.12 11.5 C0.12 12.65 0.12 13.79 0.12 14.98 C0.08 21.75 -0.16 28.45 -0.64 35.2 C-1.77 52.72 -1.11 70.39 -0.36 87.91 C-0.09 94.44 0.13 100.96 0.19 107.5 C0.2 108.24 0.21 108.98 0.23 109.75 C0.23 111.5 0.13 113.25 0 115 C-4.79 119.79 -15.34 118.12 -21.88 118.19 C-22.6 118.2 -23.33 118.21 -24.07 118.23 C-28.14 118.23 -31.39 117.96 -35 116 C-36.35 113.29 -36.01 111.36 -35.88 108.33 C-35.83 107.12 -35.78 105.91 -35.73 104.66 C-35.7 104 -35.68 103.34 -35.65 102.66 C-35.07 88.69 -34.91 74.73 -34.94 60.75 C-34.94 59.85 -34.94 58.94 -34.94 58.01 C-34.95 51.53 -34.98 45.05 -35 38.56 C-35.02 31.97 -35.04 25.37 -35.06 18.78 C-35.06 16.17 -35.07 13.56 -35.09 10.95 C-35.09 9.37 -35.09 7.8 -35.1 6.22 C-35.1 5.5 -35.11 4.78 -35.11 4.04 C-35.11 2.36 -35.06 0.68 -35 -1 C-32.22 -3.78 -24.01 -2.55 -20.25 -2.69 C-19.61 -2.72 -19.61 -2.72 -16.34 -2.87 C-15.72 -2.89 -15.72 -2.89 -12.58 -3.01 C-12.01 -3.03 -12.01 -3.03 -9.12 -3.15 C-5.73 -2.99 -2.5 -2.5 0 0 Z " fill="#5BB780" transform="translate(812,197)"/>
<path d="M0 0 C0.66 0.33 1.32 0.66 2 1 C1.44 1.56 0.89 2.12 0.31 2.7 C-14.8 18.58 -20.69 35.78 -20.46 57.39 C-20.22 66.18 -19.16 74.48 -17 83 C-16.8 83.8 -16.61 84.59 -16.4 85.41 C-16.27 85.94 -16.14 86.46 -16 87 C-16.66 87 -17.32 87 -18 87 C-18.66 84.36 -19.32 81.72 -20 79 C-20.33 79 -20.66 79 -21 79 C-24.26 55.72 -23.89 36.36 -13 15 C-12.34 15 -11.68 15 -11 15 C-10.77 14.28 -10.53 13.57 -10.29 12.83 C-8.78 9.51 -6.86 7.35 -4.38 4.69 C-3.56 3.8 -2.74 2.92 -1.9 2.01 C-1.27 1.35 -0.65 0.68 0 0 Z " fill="#71B480" transform="translate(38,117)"/>
<path d="M0 0 C0.96 0.01 1.92 0.01 2.9 0.02 C3.42 0.02 3.42 0.02 6.04 0.03 C7.13 0.03 8.22 0.04 9.34 0.05 C9.88 0.05 9.88 0.05 12.65 0.06 C15.36 0.08 18.07 0.09 20.78 0.11 C20.78 0.44 20.78 0.77 20.78 1.11 C17.15 1.28 17.15 1.28 -1.22 2.11 C-1.14 4.38 -1.06 6.65 -0.97 8.98 C-0.14 33.07 -0.4 57.03 -1.22 81.11 C-1.55 81.11 -1.88 81.11 -2.22 81.11 C-3.32 32.14 -3.32 32.14 -3.35 13.05 C-3.35 11.82 -3.36 10.6 -3.36 9.33 C-3.36 8.24 -3.36 7.14 -3.36 6.02 C-3.36 5.08 -3.36 4.15 -3.35 3.19 C-3.17 0.28 -2.91 0.15 0 0 Z " fill="#4A8C68" transform="translate(780.224853515625,194.886474609375)"/>
<path d="M0 0 C0.99 0.33 1.98 0.66 3 1 C2.99 1.89 2.98 2.78 2.96 3.7 C2.9 13.27 3.14 22.81 3.5 32.38 C3.92 43.59 4.13 54.78 4 66 C3.67 66 3.34 66 3 66 C2.67 69.63 2.34 73.26 2 77 C1.67 77 1.34 77 1 77 C1.01 76.19 1.01 75.37 1.02 74.54 C1.1 59.86 1.08 45.23 0.36 30.56 C-0.13 20.37 -0.09 10.2 0 0 Z " fill="#5EA37C" transform="translate(827,197)"/>
<path d="M0 0 C0.33 0 0.66 0 1 0 C1.16 20.69 0.71 41.32 0 62 C-2.65 59.35 -2.24 57.41 -2.25 53.8 C-2.25 52.95 -2.24 52.11 -2.23 51.23 C-2.23 50.36 -2.23 49.48 -2.23 48.58 C-2.23 46.73 -2.22 44.88 -2.21 43.03 C-2.19 40.21 -2.19 37.39 -2.19 34.56 C-2.18 32.76 -2.17 30.97 -2.17 29.17 C-2.17 28.33 -2.17 27.48 -2.16 26.61 C-2.13 22.6 -1.93 18.93 -1 15 C-0.78 12.39 -0.59 9.8 -0.44 7.19 C-0.39 6.49 -0.35 5.8 -0.31 5.09 C-0.2 3.39 -0.1 1.7 0 0 Z " fill="#58A478" transform="translate(742,103)"/>
<path d="M0 0 C1.32 7.69 0.89 15.23 0.56 23 C0.51 24.36 0.46 25.72 0.4 27.08 C0.28 30.39 0.14 33.69 0 37 C-0.33 37 -0.66 37 -1 37 C-1.77 24.65 -2.13 12.37 -2 0 C-2.28 0.08 -2.28 0.08 -3.72 0.49 C-6.06 1.01 -8.12 1.13 -10.52 1.13 C-11.38 1.13 -12.24 1.14 -13.12 1.14 C-14.01 1.13 -14.9 1.13 -15.81 1.12 C-16.69 1.13 -17.57 1.13 -18.47 1.14 C-23.42 1.13 -28.12 0.84 -33 0 C-33 -0.33 -33 -0.66 -33 -1 C-32.07 -0.99 -31.14 -0.98 -30.18 -0.96 C-22.64 -0.91 -15.31 -1.12 -7.8 -1.98 C-4.72 -2 -2.76 -1.33 0 0 Z " fill="#53936E" transform="translate(773,53)"/>
<path d="M0 0 C1.54 0.97 3.07 1.96 4.56 3 C1.56 4 1.56 4 -1.44 3 C-1.44 2.34 -1.44 1.68 -1.44 1 C-5.76 -0.21 -9.85 -0.22 -14.31 -0.25 C-15.1 -0.27 -15.89 -0.29 -16.71 -0.31 C-23.93 -0.36 -28.46 1.79 -33.81 6.69 C-34.5 7.31 -35.19 7.93 -35.9 8.57 C-36.41 9.04 -36.91 9.52 -37.44 10 C-38.43 9.34 -39.42 8.68 -40.44 8 C-28.8 -2 -14.7 -8 0 0 Z " fill="#CEE1B7" transform="translate(76.4375,113)"/>
<path d="M0 0 C0.33 0 0.66 0 1 0 C1.77 18.01 2.15 35.97 2 54 C1.34 54 0.68 54 0 54 C-1.01 41.94 -0.97 30.09 -0.56 18 C-0.51 16.24 -0.46 14.48 -0.4 12.73 C-0.28 8.48 -0.14 4.24 0 0 Z " fill="#51926D" transform="translate(535,93)"/>
<path d="M0 0 C1.65 0 3.3 0 5 0 C-4.43 7.65 -16.52 11.48 -28.56 11.27 C-32.39 10.85 -35.49 9.56 -39 8 C-35.28 6.93 -32.82 7.34 -29 8 C-18.89 8.7 -9.44 5.3 0 2 C0 1.34 0 0.68 0 0 Z " fill="#74B683" transform="translate(139,122)"/>
<path d="M0 0 C0.66 0 1.32 0 2 0 C3.74 13.24 2.53 25.8 1 39 C0.67 39 0.34 39 0 39 C0 26.13 0 13.26 0 0 Z " fill="#539770" transform="translate(387,158)"/>
<path d="M0 0 C0.89 -0 1.78 -0.01 2.7 -0.01 C3.62 -0 4.54 0.01 5.49 0.02 C6.39 0.01 7.29 0 8.22 -0.01 C18.61 0.03 27.32 2.75 35.37 9.4 C37.55 11.64 39.44 13.92 41.37 16.4 C38.26 15.02 36.21 13.4 33.8 11.02 C24.52 2.71 12.28 1.97 0.37 2.4 C-2.65 2.65 -5.63 3 -8.63 3.4 C-5.69 0.86 -3.88 0.02 0 0 Z " fill="#DAE7C0" transform="translate(227.6328125,78.6015625)"/>
<path d="M0 0 C1.16 0.01 2.33 0.02 3.52 0.03 C4.15 0.03 4.15 0.03 7.33 0.05 C7.99 0.06 7.99 0.06 11.33 0.1 C12.67 0.11 14.01 0.12 15.35 0.13 C18.63 0.15 21.92 0.19 25.2 0.23 C25.2 0.56 25.2 0.89 25.2 1.23 C20.42 1.56 20.42 1.56 -3.8 3.23 C-3.8 14.45 -3.8 25.67 -3.8 37.23 C-4.13 37.23 -4.46 37.23 -4.8 37.23 C-4.85 32.28 -4.88 27.33 -4.91 22.38 C-4.92 20.7 -4.93 19.02 -4.95 17.33 C-4.97 14.91 -4.98 12.5 -4.99 10.08 C-5 9.32 -5.01 8.57 -5.02 7.79 C-5.02 5.93 -4.92 4.08 -4.8 2.23 C-2.8 0.23 -2.8 0.23 0 0 Z " fill="#407B5A" transform="translate(538.79736328125,51.77294921875)"/>
<path d="M0 0 C2 2 2 2 2.23 3.88 C2.22 4.62 2.21 5.37 2.2 6.13 C2.19 6.94 2.18 7.74 2.18 8.57 C2.16 9.42 2.14 10.26 2.12 11.12 C2.12 11.97 2.11 12.82 2.1 13.7 C2.07 15.8 2.04 17.9 2 20 C1.34 20 0.68 20 0 20 C-0.33 14.39 -0.66 8.78 -1 3 C-5.95 3 -10.9 3 -16 3 C-16.33 2.34 -16.66 1.68 -17 1 C-11.31 0.26 -5.74 -0.3 0 0 Z " fill="#579970" transform="translate(520,283)"/>
<path d="M0 0 C0.33 0 0.66 0 1 0 C1.03 0.57 1.05 1.13 1.08 1.71 C1.19 4.27 1.31 6.82 1.44 9.38 C1.48 10.26 1.52 11.15 1.56 12.07 C1.6 12.92 1.64 13.77 1.68 14.65 C1.72 15.43 1.76 16.22 1.79 17.03 C2 19 2 19 3 21 C3.08 22.45 3.11 23.9 3.1 25.35 C3.09 26.2 3.09 27.05 3.09 27.93 C3.08 28.82 3.07 29.71 3.06 30.62 C3.06 31.52 3.05 32.42 3.05 33.34 C3.04 35.56 3.02 37.78 3 40 C2.67 40 2.34 40 2 40 C1.67 43.63 1.34 47.26 1 51 C0.67 51 0.34 51 0 51 C0 34.17 0 17.34 0 0 Z " fill="#4E936C" transform="translate(828,223)"/>
<path d="M0 0 C1.87 -0.05 3.75 -0.09 5.62 -0.12 C6.15 -0.14 6.15 -0.14 8.79 -0.2 C12 0 12 0 14.78 0.97 C18.18 2.06 21.15 2.4 24.71 2.63 C25.95 2.72 27.2 2.8 28.48 2.89 C29.12 2.93 29.12 2.93 32.38 3.12 C33.68 3.21 34.99 3.3 36.34 3.39 C39.56 3.6 42.78 3.8 46 4 C46 4.33 46 4.66 46 5 C30.25 5.25 15.28 5.28 0 1 C0 0.67 0 0.34 0 0 Z " fill="#D1E3BB" transform="translate(180,228)"/>
<path d="M0 0 C0.66 0 1.32 0 2 0 C3.16 8.26 2.93 16.31 2.56 24.62 C2.51 25.92 2.46 27.21 2.4 28.54 C2.28 31.69 2.14 34.85 2 38 C1.67 38 1.34 38 1 38 C0.3 25.32 -0.15 12.7 0 0 Z " fill="#4C8D6B" transform="translate(648,55)"/>
</svg>
